HIERARCHY
ROOT root
{
	OFFSET	0	13.1	24.9
	CHANNELS 6  Xposition Yposition Zposition Xrotation Yrotation Zrotation
	JOINT spine_1
	{
		OFFSET	0	9.99999	0
		CHANNELS 3  Xrotation Yrotation Zrotation
		JOINT spine_2
		{
			OFFSET	0	112	-10
			CHANNELS 3  Xrotation Yrotation Zrotation
			JOINT spine_3
			{
				OFFSET	0	206.5	19.3
				CHANNELS 3  Xrotation Yrotation Zrotation
				JOINT spine_4
				{
					OFFSET	0	110.4	14.6
					CHANNELS 3  Xrotation Yrotation Zrotation
					JOINT neck_1
					{
						OFFSET	0	71.8	-50.3
						CHANNELS 3  Xrotation Yrotation Zrotation
						JOINT neck_2
						{
							OFFSET	0	86.2	-25.8
							CHANNELS 3  Xrotation Yrotation Zrotation
							JOINT head_ee
							{
								OFFSET	0	179.8	-8.7
								CHANNELS 3  Xrotation Yrotation Zrotation
								End Site
								{
									OFFSET	1	0	0
								}
							}
						}
					}
					JOINT left_clavicle
					{
						OFFSET	-43.2	22.4	-70.8
						CHANNELS 3  Xrotation Yrotation Zrotation
						JOINT left_shoulder
						{
							OFFSET	-93.9	-5.79999	48.7
							CHANNELS 3  Xrotation Yrotation Zrotation
							JOINT left_elbow
							{
								OFFSET	-291.4	-30.8	15.2
								CHANNELS 3  Xrotation Yrotation Zrotation
								JOINT left_lowarm_twist
								{
									OFFSET	-110.7	-3.89999	13.6
									CHANNELS 3  Xrotation Yrotation Zrotation
									JOINT left_hand
									{
										OFFSET	-110.7	-3.89999	13.6
										CHANNELS 3  Xrotation Yrotation Zrotation
										JOINT left_ee
										{
											OFFSET	-80.8	-5.10001	12.1
											CHANNELS 3  Xrotation Yrotation Zrotation
											End Site
											{
												OFFSET	1	0	0
											}
										}
									}
								}
							}
						}
					}
					JOINT right_clavicle
					{
						OFFSET	43.2	22.4	-70.8
						CHANNELS 3  Xrotation Yrotation Zrotation
						JOINT right_shoulder
						{
							OFFSET	93.9	-5.79999	48.7
							CHANNELS 3  Xrotation Yrotation Zrotation
							JOINT right_elbow
							{
								OFFSET	291.4	-30.8	15.2
								CHANNELS 3  Xrotation Yrotation Zrotation
								JOINT right_lowarm_twist
								{
									OFFSET	110.7	-3.89999	13.6
									CHANNELS 3  Xrotation Yrotation Zrotation
									JOINT right_hand
									{
										OFFSET	110.7	-3.89999	13.6
										CHANNELS 3  Xrotation Yrotation Zrotation
										JOINT right_ee
										{
											OFFSET	80.8	-5.10001	12.1
											CHANNELS 3  Xrotation Yrotation Zrotation
											End Site
											{
												OFFSET	1	0	0
											}
										}
									}
								}
							}
						}
					}
				}
			}
		}
	}
	JOINT left_hip
	{
		OFFSET	-82.8	-127.5	0.300001
		CHANNELS 3  Xrotation Yrotation Zrotation
		JOINT left_knee
		{
			OFFSET	-28.2	-396.7	2.2
			CHANNELS 3  Xrotation Yrotation Zrotation
			JOINT left_ankle
			{
				OFFSET	-11.7	-411.3	35.4
				CHANNELS 3  Xrotation Yrotation Zrotation
				JOINT left_toes
				{
					OFFSET	0	-60	-88.6
					CHANNELS 3  Xrotation Yrotation Zrotation
					JOINT left_foot_ee
					{
						OFFSET	-22.5	-16.5	-42.2
						CHANNELS 3  Xrotation Yrotation Zrotation
						End Site
						{
							OFFSET	1	0	0
						}
					}
				}
			}
		}
	}
	JOINT right_hip
	{
		OFFSET	82.8	-127.5	0.300001
		CHANNELS 3  Xrotation Yrotation Zrotation
		JOINT right_knee
		{
			OFFSET	28.2	-396.7	2.2
			CHANNELS 3  Xrotation Yrotation Zrotation
			JOINT right_ankle
			{
				OFFSET	11.7	-411.3	35.4
				CHANNELS 3  Xrotation Yrotation Zrotation
				JOINT right_toes
				{
					OFFSET	0	-60	-88.6
					CHANNELS 3  Xrotation Yrotation Zrotation
					JOINT right_foot_ee
					{
						OFFSET	22.5	-16.5	-42.2
						CHANNELS 3  Xrotation Yrotation Zrotation
						End Site
						{
							OFFSET	1	0	0
						}
					}
				}
			}
		}
	}
}
MOTION
Frames: 11
Frame Time: 0.02
2267.28 731.509 -1296.66 10.6771 60.4561 -11.4621 -3.15314 0.422195 0.813879 -3.15285 0.369552 0.839093 -3.14676 0.135393 0.906811 -3.1478 0.276902 0.874052 -20.6381 17.0879 9.70954 -21.6334 28.1998 16.6317 -0.0 0.0 -0.0 7.84797 7.56892 15.0399 -8.94663 -20.5387 53.6668 3.37586 -59.1076 1.91453 -40.0596 -2.95751 4.06494 -1.58243 13.7263 -4.26645 -0.0 0.0 -0.0 10.0254 6.31405 -19.8942 -23.3679 22.7182 -53.7106 0.605266 16.6905 -0.0887878 -3.01053 0.115754 -0.366935 1.63913 -29.555 -20.727 0.0 0.0 0.0 -11.4336 17.0399 9.00775 4.71176 -0.222506 -0.688461 23.821 -8.79495 -3.31389 -8.97172 0.0 0.0 -0.0 0.0 -0.0 -3.47012 32.467 9.65425 -45.6078 0.861511 -6.76478 -4.59106 14.5829 -0.737963 -15.2096 0.0 0.0 0.0 0.0 0.0 
2254.62 730.219 -1294.33 11.1304 60.3878 -12.7368 -3.04138 0.568361 0.919721 -3.04105 0.508688 0.95402 -3.03171 0.24147 1.05385 -3.03303 0.404867 1.00249 -20.8195 16.8996 10.2078 -21.7426 27.6286 17.0286 -0.0 0.0 -0.0 7.87359 8.19402 15.0551 -9.74043 -20.2349 53.6419 3.70281 -61.3856 2.19844 -40.0166 -2.95293 4.06185 -1.46294 13.5835 -3.58364 -0.0 0.0 -0.0 10.4961 6.35177 -20.9111 -24.4178 22.0053 -52.445 0.526519 14.6185 -0.0675356 -1.4776 0.0543999 -0.180844 1.85108 -28.7505 -21.7792 0.0 0.0 0.0 -12.6829 17.1471 10.5286 4.76716 -0.225458 -0.696444 24.5693 -7.01472 -3.37643 -8.27271 0.0 0.0 -0.0 0.0 -0.0 1.05351 32.7746 7.59442 -42.0128 0.599762 -6.27773 4.17232 9.28736 0.633339 -16.4096 0.0 0.0 0.0 0.0 0.0 
2250.64 731.123 -1294.62 9.90288 59.6737 -11.3406 -2.72746 0.556626 0.946749 -2.7271 0.495257 0.980246 -2.71776 0.227536 1.07442 -2.71916 0.394356 1.02501 -20.5842 16.6782 9.60122 -21.5072 27.4507 16.309 -0.0 0.0 -0.0 7.67304 8.60094 14.6647 -10.8938 -20.2918 53.1872 3.80137 -62.013 2.28522 -40.5426 -3.00905 4.09935 -1.20917 13.3201 -2.1124 -0.0 0.0 -0.0 10.0919 8.62707 -20.0456 -23.978 22.5691 -54.5402 0.522544 14.5128 -0.0665358 1.17798 -0.0400131 0.145126 2.20054 -27.591 -23.6177 0.0 0.0 0.0 -12.5074 16.3819 10.4394 4.81607 -0.228071 -0.70349 23.1895 -5.2817 -3.18881 -7.46404 0.0 0.0 -0.0 0.0 -0.0 3.51035 27.0082 6.81412 -38.5025 0.374259 -5.78751 12.2629 6.90776 1.78691 -15.4801 0.0 0.0 0.0 0.0 0.0 
2240.93 734.973 -1293.22 8.8219 59.7186 -10.6431 -2.45864 0.462367 1.07083 -2.45808 0.393294 1.09808 -2.44958 0.104204 1.16172 -2.45135 0.286356 1.13069 -19.8009 16.2772 9.56846 -20.5716 26.5475 15.8398 -0.0 0.0 -0.0 7.5698 10.7156 14.3627 -12.141 -21.0702 53.4525 3.91893 -62.7289 2.38937 -41.0954 -3.0684 4.13822 -1.32217 13.4367 -2.7683 -0.0 0.0 -0.0 10.3801 8.16906 -20.6743 -24.153 22.3576 -53.955 0.501895 13.9622 -0.0614574 2.05931 -0.0679918 0.25422 2.2327 -29.5567 -24.2262 0.0 0.0 0.0 -11.9851 16.5261 11.2106 3.7213 -0.171034 -0.545263 23.2928 -6.3099 -3.21408 -10.4257 0.0 0.0 -0.0 0.0 -0.0 3.39882 26.5416 6.64557 -34.2364 0.141369 -5.17491 16.6802 5.55817 2.37122 -14.3044 0.0 0.0 0.0 0.0 0.0 
2231.21 728.591 -1294.14 9.03496 59.9965 -11.2753 -2.25149 0.354779 1.17056 -2.25077 0.27958 1.19076 -2.24395 -0.0248156 1.22288 -2.246 0.168613 1.21146 -19.164 16.5666 9.82995 -19.8877 26.8516 16.0179 -0.0 0.0 -0.0 7.19945 11.9315 13.64 -12.5523 -21.9077 53.4955 4.01103 -63.2664 2.47143 -41.7619 -3.14046 4.18431 -1.3061 13.6082 -2.58982 -0.0 0.0 -0.0 10.4303 8.66368 -20.7844 -24.0022 22.5931 -54.2683 0.508719 14.1445 -0.0631144 3.97593 -0.12302 0.492847 2.55376 -29.7974 -26.2145 0.0 0.0 0.0 -14.638 19.3514 13.222 2.15658 -0.0947959 -0.317324 28.2711 -5.56772 -3.78112 -10.2295 0.0 0.0 -0.0 0.0 -0.0 4.41766 22.6719 6.76425 -32.9532 0.0803336 -4.98751 27.5444 3.17525 3.67079 -12.3663 0.0 0.0 0.0 0.0 0.0 
2219.01 725.409 -1297.26 9.72932 60.1402 -12.4804 -2.22381 0.379796 1.3156 -2.2229 0.295319 1.3371 -2.21476 -0.0452069 1.36857 -2.21733 0.171481 1.35854 -17.8739 16.7424 8.0362 -18.6692 27.8873 14.1239 -0.0 0.0 -0.0 6.80769 13.0827 12.9021 -13.8683 -22.9973 53.4861 4.1059 -63.7998 2.55636 -42.206 -3.18877 4.21456 -1.37014 13.8854 -2.86438 -0.0 0.0 -0.0 10.4068 9.37783 -20.7307 -23.6368 22.9945 -55.7298 0.423369 11.8449 -0.0439186 5.44505 -0.159774 0.67691 2.57809 -29.0804 -26.234 0.0 0.0 0.0 -15.7894 16.7016 14.0181 1.77164 -0.0769989 -0.260943 30.2707 -1.92393 -3.9555 -11.5538 0.0 0.0 -0.0 0.0 -0.0 5.01782 21.6556 5.96424 -28.3909 -0.102327 -4.31137 29.9498 1.37226 3.91613 -12.1537 0.0 0.0 0.0 0.0 0.0 
2206.65 724.473 -1297.82 10.7921 60.299 -14.0881 -2.1997 0.378212 1.41798 -2.19863 0.287226 1.43916 -2.19 -0.0777109 1.46548 -2.19297 0.154685 1.45937 -15.9926 16.6698 7.37169 -16.6376 27.771 12.944 -0.0 0.0 -0.0 6.73704 13.9679 12.737 -14.1684 -22.5853 53.9162 4.08343 -63.6753 2.53621 -42.5794 -3.22957 4.2397 -1.25903 13.9128 -2.15775 -0.0 0.0 -0.0 10.5735 9.8795 -21.0943 -22.7375 23.3789 -55.9476 0.391168 10.9667 -0.0375506 7.02483 -0.194015 0.875802 2.91589 -29.9616 -28.4802 0.0 0.0 0.0 -16.7425 16.7929 14.4798 1.77122 -0.0769799 -0.260881 30.9245 -0.192413 -4.00962 -11.3619 0.0 0.0 -0.0 0.0 -0.0 5.20375 19.2424 5.93773 -24.4758 -0.215723 -3.72135 34.9655 0.000202558 4.41582 -10.3444 0.0 0.0 0.0 0.0 0.0 
2199.16 720.348 -1298.84 11.1441 60.4727 -14.7216 -2.06584 0.379831 1.48202 -2.06467 0.284767 1.50318 -2.05571 -0.0923536 1.52712 -2.05894 0.149958 1.52255 -16.097 17.1663 7.5202 -16.8039 28.6629 13.3126 -0.0 0.0 -0.0 6.3779 13.9251 12.1337 -14.6244 -23.2985 53.9837 3.95659 -62.9511 2.42288 -42.2819 -3.19705 4.21969 -1.046 14.4924 -0.572397 -0.0 0.0 -0.0 10.7054 10.6717 -21.3784 -21.7387 23.8281 -56.6289 0.37367 10.4873 -0.0342937 9.46074 -0.23603 1.1841 3.13038 -30.0985 -29.8532 0.0 0.0 0.0 -17.9228 17.8228 15.2175 2.76084 -0.123498 -0.405589 33.5251 2.77003 -4.2587 -12.6221 0.0 0.0 -0.0 0.0 -0.0 5.58274 16.0688 5.27184 -18.994 -0.306253 -2.88537 33.3974 -2.49976 4.24703 -9.27149 0.0 0.0 0.0 0.0 0.0 
2190.58 722.085 -1303.68 11.2771 60.8439 -15.091 -2.03482 0.382802 1.61621 -2.03341 0.279197 1.63729 -2.02371 -0.129709 1.65585 -2.02751 0.133392 1.65555 -15.5772 17.316 7.42883 -16.2532 28.9046 13.1358 -0.0 0.0 -0.0 6.04655 13.5892 11.5886 -15.5562 -24.119 54.0189 3.679 -61.2302 2.17755 -42.0459 -3.17132 4.20369 -1.0433 15.3524 -0.177316 -0.0 0.0 -0.0 11.284 12.0018 -22.6505 -21.007 23.6324 -56.9341 0.346746 9.74667 -0.0295642 11.0817 -0.256708 1.39011 3.09929 -29.8872 -29.6261 0.0 0.0 0.0 -19.3637 18.1577 15.5367 3.79355 -0.174704 -0.555737 36.1875 4.71844 -4.51263 -13.4112 0.0 0.0 -0.0 0.0 -0.0 7.99508 13.8286 3.78292 -14.9294 -0.321565 -2.26206 28.6471 -3.77789 3.74527 -8.97389 0.0 0.0 0.0 0.0 0.0 
2187.19 722.265 -1306.56 11.3126 60.4619 -15.2427 -2.08856 0.386287 1.7038 -2.08699 0.277103 1.72492 -2.07674 -0.15479 1.74016 -2.08094 0.121936 1.74277 -15.7922 17.1304 7.65634 -16.4489 28.458 13.329 -0.0 0.0 -0.0 5.54918 13.1934 10.7608 -16.295 -24.8563 54.2996 3.46974 -59.7946 1.99538 -41.8743 -3.15266 4.192 -1.03653 15.8202 0.0697732 -0.0 0.0 -0.0 11.8118 12.8962 -23.8258 -19.6815 23.7922 -56.7924 0.325832 9.16909 -0.0261275 12.271 -0.268169 1.54159 2.85698 -29.6212 -28.0583 0.0 0.0 0.0 -20.3329 18.7911 15.816 4.98403 -0.23709 -0.72767 37.2311 5.91691 -4.6102 -14.1783 0.0 0.0 -0.0 0.0 -0.0 10.0776 12.1417 2.40458 -10.3894 -0.286392 -1.56653 26.5001 -3.95759 3.50605 -9.11169 0.0 0.0 0.0 0.0 0.0 
2175.13 721.274 -1307.61 10.7418 61.4314 -14.2378 -2.092 0.39577 1.76035 -2.09032 0.282971 1.78196 -2.07948 -0.16319 1.79688 -2.08397 0.122595 1.80011 -15.8929 16.8944 7.7621 -16.5216 27.9623 13.3575 -0.0 0.0 -0.0 5.38418 13.3846 10.4797 -16.7382 -25.31 54.6552 3.32515 -58.7246 1.87111 -42.0475 -3.1715 4.20381 -1.03724 16.1475 0.208945 -0.0 0.0 -0.0 12.2027 13.5414 -24.7027 -18.5111 23.89 -56.9952 0.293374 8.26903 -0.021207 13.1658 -0.274717 1.65569 2.68854 -29.4975 -26.9902 0.0 0.0 0.0 -20.9809 18.5618 15.8551 5.73705 -0.278395 -0.835754 36.9211 6.6141 -4.58228 -14.8795 0.0 0.0 -0.0 0.0 -0.0 12.0837 10.9162 1.24537 -7.15163 -0.22771 -1.07323 24.7684 -3.56023 3.3087 -9.0505 0.0 0.0 0.0 0.0 0.0 
